<svg width="156" height="157" viewBox="0 0 156 157" fill="none" xmlns="http://www.w3.org/2000/svg">
<circle cx="78.624" cy="73.82" r="61.776" fill="#25D366" stroke="#D9FDD3" stroke-width="1.248"/>
<path d="M53.7117 92.3655L52.7178 121.27L45.78 113.246C32.3654 110.111 23.7876 140.54 24.591 145.362C24.6043 145.425 24.6177 145.489 24.6311 145.553C24.6158 145.494 24.6024 145.431 24.591 145.362C19.752 122.359 18.8302 110.395 31.9045 97.1961L24.9667 89.1713L53.7117 92.3655Z" fill="#E5E5E5"/>
<path d="M24.9667 89.1713L53.7117 92.3655L52.7178 121.27L45.78 113.246C32.174 110.067 23.5438 141.415 24.6311 145.553C19.7572 122.425 18.7942 110.432 31.9045 97.1961L24.9667 89.1713Z" stroke="#D9FDD3" stroke-width="1.248"/>
<path d="M69.2424 80.0888L69.279 80.1443L69.3228 80.1943C77.1337 89.1149 83.2863 93.1039 88.4868 94.2887C93.7423 95.486 97.8333 93.776 101.349 91.8344C102.086 91.4274 102.774 91.0252 103.439 90.6359C104.408 90.0693 105.329 89.5304 106.286 89.0449C107.855 88.2494 109.325 87.7082 110.82 87.62C113.707 87.4495 117.121 88.9629 121.747 95.0986C123.55 97.4897 124.119 99.3794 123.957 100.816C123.799 102.211 122.922 103.416 121.258 104.401C117.855 106.413 111.614 107.21 104.108 106.586C96.6558 105.966 88.1506 103.963 80.3566 100.579C72.5552 97.1909 65.5359 92.45 60.9744 86.3999C50.4344 72.4198 49.6842 53.0079 53.2072 39.1376C54.9732 32.185 57.7665 26.815 60.7573 24.2253C62.2355 22.9454 63.671 22.4183 65.0099 22.5704C66.3508 22.7227 67.8292 23.5828 69.3345 25.5794C74.6745 32.6622 75.5564 36.9325 74.7231 39.9522C74.3005 41.4837 73.4104 42.8057 72.2224 44.0963C71.309 45.0886 70.2669 46.0153 69.162 46.9979C68.81 47.311 68.4516 47.6297 68.0889 47.9581C65.1434 50.6247 62.0821 53.7827 61.5293 58.8366C60.9813 63.8463 62.9207 70.48 69.2424 80.0888Z" fill="#D9FDD3" stroke="#DCF8C6" stroke-width="1.93474"/>
</svg>
